<svg xmlns="http://www.w3.org/2000/svg" viewBox="0 0 120.98 120.98"><defs><style>.cls-1{fill:#040000;}.cls-2,.cls-5{fill:#231815;}.cls-2,.cls-4{stroke:#231815;stroke-linecap:round;stroke-linejoin:round;stroke-width:1.19px;}.cls-3,.cls-6{fill:none;}.cls-3{stroke:#fff;stroke-width:0.56px;}.cls-4{fill:#fff;}.cls-6{stroke:#040000;stroke-miterlimit:10;stroke-width:3px;}</style></defs><title>アセット 1</title><g id="レイヤー_2" data-name="レイヤー 2"><g id="レイヤー_1-2" data-name="レイヤー 1"><path class="cls-1" d="M62,38.18a35.38,35.38,0,0,0-1.75,4.67c-.33,17,.75,30.88.52,46.17a6.6,6.6,0,0,1-.29,1.31c-.29,1.3-4,2-4.35,2.24a4.08,4.08,0,0,1-.76.13l-37-39.15L32.67,94.48a7.48,7.48,0,0,0,1.25,2.33c.42.47,1.46.51,3.1.13a31.79,31.79,0,0,0,3.76-1.06,2.23,2.23,0,0,1,.64,1.06,6.51,6.51,0,0,1,.37,1.17l-8.44,2.79q-.32.12-9.3,3.94c-.13-.06-.31-.37-.55-.93a2.84,2.84,0,0,1-.31-1.35,26.31,26.31,0,0,0,3.55-1.8c1.47-.86-.07-1.9.11-2.65a8.93,8.93,0,0,0-.67-4Q16,63.93,13.94,58.61a39.55,39.55,0,0,0-2.55-6c-.36-.43,1-.3-.53-.08a17.29,17.29,0,0,0-3.43.73c-.1,0-.29-.31-.56-1A3.17,3.17,0,0,1,6.53,51q5.62-1.73,8-2.65c1.62-.61,3.85-1.59,6.71-2.95q2.5,3.21,15.33,16.59T53.72,80c.17.15-1.31,1.37-1.17,1.32S53,69,53,44.77L53,31.58"/><path class="cls-1" d="M81.23,78c.86.27,3.6-.64,6.73-1.83l3.78-1.43q10-3.83,10.85-9.83a49.28,49.28,0,0,0,.31-6.06c0-.37,2.32-.35,3.15-.67a2.3,2.3,0,0,1,1.86-.13q0,1,.13,6.55a50,50,0,0,0,.6,8.24L83.05,81.59l-3.89,1.58M75.67,52.05c.12.33,1.33.07,3.61-.8l4.2-1.59q5.42-2.05,6.28-3.2t.36-5.27a1,1,0,0,1,0-.58c-.1-.4.2-.73.88-1a2.49,2.49,0,0,1,1.6-.2l5.7,15a2.47,2.47,0,0,1-1.24.8c-.67.25-1.14.21-1.43-.11Q92.72,51,91.44,50.79T83.58,53Q77,55.55,77.26,56.25M57.92,33.94a21.8,21.8,0,0,0-3.45.9,3,3,0,0,1-.71-1.12,15.3,15.3,0,0,1-1.06-3.21c-1.65.55,1.75-.26,9.53-3.21L87.68,17.07c.83,1.48,2.9,5.33,4.44,7.59S94.6,28.38,95,29a2.14,2.14,0,0,1-1.25.88q-1,.39-1.32-.15-2.89-4-5.7-4.6a11,11,0,0,0-6.37.71l-6.84,2.59"/><path class="cls-2" d="M79.65,70,69.44,73.72l-13-37.87s1-2.26,4.68-3.63,5.52-.1,5.52-.1Z"/><line class="cls-3" x1="70.67" y1="73.27" x2="57.79" y2="34.66"/><line class="cls-3" x1="74.19" y1="71.99" x2="61.14" y2="32.22"/><line class="cls-3" x1="77.7" y1="70.7" x2="64.38" y2="31.89"/><path class="cls-4" d="M74.41,70.78a12.31,12.31,0,0,0-5,2.94l9.09,10.14L79.65,70S77.84,69.6,74.41,70.78Z"/><path class="cls-5" d="M75.4,80.28a5.69,5.69,0,0,1,1.74-1.07,4.1,4.1,0,0,1,1.78-.13l-.39,4.78Z"/><circle class="cls-6" cx="60.49" cy="60.49" r="58.98"/></g></g></svg>