<svg xmlns="http://www.w3.org/2000/svg" viewBox="0 0 117.98 117.98"><defs><style>.cls-1{fill:#102f17;}.cls-2,.cls-3{fill:#fff;}.cls-3{stroke:#fff;stroke-linecap:round;stroke-linejoin:round;stroke-width:1.19px;}.cls-4{fill:none;stroke:#102f17;stroke-width:0.56px;}</style></defs><title>アセット 6</title><g id="レイヤー_2" data-name="レイヤー 2"><g id="レイヤー_1-2" data-name="レイヤー 1"><circle class="cls-1" cx="58.99" cy="58.99" r="58.98"/><path class="cls-2" d="M60.51,36.68a35.38,35.38,0,0,0-1.75,4.67c-.33,17,.75,30.88.52,46.17A6.6,6.6,0,0,1,59,88.83c-.29,1.3-4,2-4.35,2.24a4.08,4.08,0,0,1-.76.13l-37-39.15L31.17,93a7.48,7.48,0,0,0,1.25,2.33c.42.47,1.46.51,3.1.13a31.79,31.79,0,0,0,3.76-1.06,2.23,2.23,0,0,1,.64,1.06,6.51,6.51,0,0,1,.37,1.17L31.85,99.4q-.32.12-9.3,3.94c-.13-.06-.31-.37-.55-.93a2.84,2.84,0,0,1-.31-1.35,26.31,26.31,0,0,0,3.55-1.8c1.47-.86-.07-1.9.11-2.65a8.93,8.93,0,0,0-.67-4Q14.45,62.43,12.44,57.11a39.55,39.55,0,0,0-2.55-6c-.36-.43,1-.3-.53-.08a17.29,17.29,0,0,0-3.43.73c-.1,0-.29-.31-.56-1A3.17,3.17,0,0,1,5,49.45q5.62-1.73,8-2.65c1.62-.61,3.85-1.59,6.71-2.95q2.5,3.21,15.33,16.59t17.11,18c.17.15-1.31,1.37-1.17,1.32s.4-12.26.48-36.52l-.06-13.19"/><path class="cls-2" d="M79.73,76.47c.86.27,3.6-.64,6.73-1.83l3.78-1.43q10-3.83,10.85-9.83a49.28,49.28,0,0,0,.31-6.06c0-.37,2.32-.35,3.15-.67a2.3,2.3,0,0,1,1.86-.13q0,1,.13,6.55a50,50,0,0,0,.6,8.24L81.55,80.09l-3.89,1.58M74.17,50.55c.12.33,1.33.07,3.61-.8L82,48.16q5.42-2.05,6.28-3.2t.36-5.27a1,1,0,0,1,0-.58c-.1-.4.2-.73.88-1a2.49,2.49,0,0,1,1.6-.2l5.7,15a2.47,2.47,0,0,1-1.24.8c-.67.25-1.14.21-1.43-.11q-2.94-4.11-4.22-4.35t-7.86,2.25Q75.5,54,75.76,54.75M56.42,32.44a21.8,21.8,0,0,0-3.45.9,3,3,0,0,1-.71-1.12A15.3,15.3,0,0,1,51.2,29c-1.65.55,1.75-.26,9.53-3.21L86.18,15.57c.83,1.48,2.9,5.33,4.44,7.59s2.48,3.72,2.83,4.35a2.14,2.14,0,0,1-1.25.88q-1,.39-1.32-.15-2.89-4-5.7-4.6a11,11,0,0,0-6.37.71L72,26.94"/><path class="cls-3" d="M78.15,68.49,67.94,72.22,55,34.35s1-2.26,4.68-3.63,5.52-.1,5.52-.1Z"/><line class="cls-4" x1="69.17" y1="71.77" x2="56.29" y2="33.16"/><line class="cls-4" x1="72.69" y1="70.49" x2="59.64" y2="30.72"/><line class="cls-4" x1="76.2" y1="69.2" x2="62.88" y2="30.39"/><path class="cls-3" d="M72.91,69.28a12.31,12.31,0,0,0-5,2.94L77,82.36l1.12-13.87S76.34,68.1,72.91,69.28Z"/><path class="cls-1" d="M73.9,78.78a5.69,5.69,0,0,1,1.74-1.07,4.1,4.1,0,0,1,1.78-.13L77,82.36Z"/></g></g></svg>